<svg xmlns="http://www.w3.org/2000/svg" viewBox="0 0 512 512" width="512" height="512">
  <rect id="svg0" x="0" y="0" width="512" height="512" rx="80" ry="80" fill="#0067d0" stroke-width="0" />
  <path id="L0" d="M150,255v172h110v-337h-110v128h16v-76l15,-30h46l15,30v264h-76v-149z" fill="#000"/>
  <path id="R0" d="M318,258v-85h75v256h-75v-140h10v125h53v-200l-11,-22h-33l-11,22v50z" fill="#000"/>
  <path id="bz0" d="m495,310c0,0 -35,57 -243,-29c-210,-80 -268,70 -240,18c40,-55 128,-103 244,-50c76,43 188,94 240,61z" fill="#000"/>
  <path id="bz1" d="m495,290c0,0 -35,57 -243,-29c-210,-80 -268,70 -240,18c40,-55 128,-103 244,-50c76,43 188,94 240,61z" fill="#fff"/>
  <path id="L1" d="M140,245v172h110v-337h-110v128h16v-76l15,-30h46l15,30v264h-76v-149z" fill="#fff"/>
  <path id="R1" d="M310,250v-85h75v256h-75v-140h10v125h53v-200l-11,-22h-31l-11,22v50z" fill="#fff"/>
</svg>